<?xml version="1.0" encoding="UTF-8" standalone="no"?>
<!DOCTYPE svg PUBLIC "-//W3C//DTD SVG 1.1//EN"
 "http://www.w3.org/Graphics/SVG/1.1/DTD/svg11.dtd">
<!-- Generated by graphviz version 2.38.0 (20140413.2041)
 -->
<!-- Title: G Pages: 1 -->
<svg width="739pt" height="492pt"
 viewBox="0.00 0.00 738.66 492.00" xmlns="http://www.w3.org/2000/svg" xmlns:xlink="http://www.w3.org/1999/xlink">
<g id="graph0" class="graph" transform="scale(1 1) rotate(0) translate(4 488)">
<title>G</title>
<polygon fill="white" stroke="none" points="-4,4 -4,-488 734.664,-488 734.664,4 -4,4"/>
<g id="clust1" class="cluster"><title>cluster_Global</title>
<path fill="none" stroke="gray" d="M144.832,-98C144.832,-98 710.664,-98 710.664,-98 716.664,-98 722.664,-104 722.664,-110 722.664,-110 722.664,-464 722.664,-464 722.664,-470 716.664,-476 710.664,-476 710.664,-476 144.832,-476 144.832,-476 138.832,-476 132.832,-470 132.832,-464 132.832,-464 132.832,-110 132.832,-110 132.832,-104 138.832,-98 144.832,-98"/>
<text text-anchor="middle" x="427.748" y="-463.2" font-family="Times,serif" font-size="11.00" fill="gray">Global</text>
</g>
<g id="clust2" class="cluster"><title>cluster_\Feather</title>
<path fill="none" stroke="gray" d="M152.832,-106C152.832,-106 702.664,-106 702.664,-106 708.664,-106 714.664,-112 714.664,-118 714.664,-118 714.664,-436 714.664,-436 714.664,-442 708.664,-448 702.664,-448 702.664,-448 152.832,-448 152.832,-448 146.832,-448 140.832,-442 140.832,-436 140.832,-436 140.832,-118 140.832,-118 140.832,-112 146.832,-106 152.832,-106"/>
<text text-anchor="middle" x="427.748" y="-435.2" font-family="Times,serif" font-size="11.00" fill="gray">Feather</text>
</g>
<!-- \\Feather\\TestValidator -->
<g id="node1" class="node"><title>\\Feather\\TestValidator</title>
<polygon fill="none" stroke="black" points="642.164,-420 538.164,-420 538.164,-384 642.164,-384 642.164,-420"/>
<text text-anchor="middle" x="590.164" y="-399.2" font-family="Courier,monospace" font-size="11.00">TestValidator</text>
</g>
<!-- \\Feather\\Context -->
<g id="node2" class="node"><title>\\Feather\\Context</title>
<polygon fill="none" stroke="black" points="622.164,-366 558.164,-366 558.164,-330 622.164,-330 622.164,-366"/>
<text text-anchor="middle" x="590.164" y="-345.2" font-family="Courier,monospace" font-size="11.00">Context</text>
</g>
<!-- \\Feather\\SkippedTestException -->
<g id="node3" class="node"><title>\\Feather\\SkippedTestException</title>
<polygon fill="none" stroke="black" points="666.164,-258 514.164,-258 514.164,-222 666.164,-222 666.164,-258"/>
<text text-anchor="middle" x="590.164" y="-237.2" font-family="Courier,monospace" font-size="11.00">SkippedTestException</text>
</g>
<!-- \\Exception -->
<g id="node8" class="node"><title>\\Exception</title>
<ellipse fill="none" stroke="black" cx="200.832" cy="-72" rx="48.9926" ry="18"/>
<text text-anchor="middle" x="200.832" y="-68.3" font-family="Times,serif" font-size="14.00" fill="gray">\Exception</text>
</g>
<!-- \\Feather\\SkippedTestException&#45;&gt;\\Exception -->
<g id="edge1" class="edge"><title>\\Feather\\SkippedTestException&#45;&gt;\\Exception</title>
<path fill="none" stroke="black" d="M514.131,-231.248C499.839,-227.226 485.627,-221.406 473.664,-213 425.551,-179.193 451.101,-133.84 401.664,-102 359.295,-74.7112 301.551,-68.602 259.03,-68.4955"/>
<polygon fill="none" stroke="black" points="258.809,-64.9972 248.839,-68.5831 258.869,-71.9969 258.809,-64.9972"/>
</g>
<!-- \\Feather\\DefaultFeatherCLIReporter -->
<g id="node4" class="node"><title>\\Feather\\DefaultFeatherCLIReporter</title>
<polygon fill="none" stroke="black" points="682.664,-312 497.664,-312 497.664,-276 682.664,-276 682.664,-312"/>
<text text-anchor="middle" x="590.164" y="-291.2" font-family="Courier,monospace" font-size="11.00">DefaultFeatherCLIReporter</text>
</g>
<!-- \\Feather\\SuiteReporter -->
<g id="node7" class="node"><title>\\Feather\\SuiteReporter</title>
<polygon fill="none" stroke="black" points="252.832,-312 148.832,-312 148.832,-276 252.832,-276 252.832,-312"/>
<text text-anchor="middle" x="200.832" y="-291.2" font-family="Courier,monospace" font-size="11.00">SuiteReporter</text>
</g>
<!-- \\Feather\\DefaultFeatherCLIReporter&#45;&gt;\\Feather\\SuiteReporter -->
<g id="edge2" class="edge"><title>\\Feather\\DefaultFeatherCLIReporter&#45;&gt;\\Feather\\SuiteReporter</title>
<path fill="none" stroke="black" stroke-dasharray="1,5" d="M497.372,-294C425.004,-294 326.105,-294 263.089,-294"/>
<polygon fill="none" stroke="black" points="262.91,-290.5 252.909,-294 262.909,-297.5 262.91,-290.5"/>
</g>
<!-- \\Feather\\ValidationFailureException -->
<g id="node5" class="node"><title>\\Feather\\ValidationFailureException</title>
<polygon fill="none" stroke="black" points="686.164,-204 494.164,-204 494.164,-168 686.164,-168 686.164,-204"/>
<text text-anchor="middle" x="590.164" y="-183.2" font-family="Courier,monospace" font-size="11.00">ValidationFailureException</text>
</g>
<!-- \\Feather\\ValidationFailureException&#45;&gt;\\Exception -->
<g id="edge3" class="edge"><title>\\Feather\\ValidationFailureException&#45;&gt;\\Exception</title>
<path fill="none" stroke="black" d="M495.573,-167.904C488.015,-165.309 480.619,-162.356 473.664,-159 436.907,-141.261 439.107,-118.244 401.664,-102 356.567,-82.4354 300.968,-75.3005 259.875,-72.8498"/>
<polygon fill="none" stroke="black" points="259.924,-69.3477 249.755,-72.323 259.56,-76.3383 259.924,-69.3477"/>
</g>
<!-- \\Feather\\RunFeatherTestsConsoleAppCommand -->
<g id="node6" class="node"><title>\\Feather\\RunFeatherTestsConsoleAppCommand</title>
<polygon fill="none" stroke="black" points="706.664,-150 473.664,-150 473.664,-114 706.664,-114 706.664,-150"/>
<text text-anchor="middle" x="590.164" y="-129.2" font-family="Courier,monospace" font-size="11.00">RunFeatherTestsConsoleAppCommand</text>
</g>
<!-- \\Symfony\\Component\\Console\\Command\\Command -->
<g id="node9" class="node"><title>\\Symfony\\Component\\Console\\Command\\Command</title>
<ellipse fill="none" stroke="black" cx="200.832" cy="-18" rx="200.665" ry="18"/>
<text text-anchor="middle" x="200.832" y="-14.3" font-family="Times,serif" font-size="14.00" fill="gray">\Symfony\Component\Console\Command\Command</text>
</g>
<!-- \\Feather\\RunFeatherTestsConsoleAppCommand&#45;&gt;\\Symfony\\Component\\Console\\Command\\Command -->
<g id="edge4" class="edge"><title>\\Feather\\RunFeatherTestsConsoleAppCommand&#45;&gt;\\Symfony\\Component\\Console\\Command\\Command</title>
<path fill="none" stroke="black" d="M557.792,-113.862C521.451,-93.7134 459.186,-61.8131 401.664,-45 384.937,-40.1107 367.158,-36.1019 349.37,-32.8161"/>
<polygon fill="none" stroke="black" points="349.951,-29.3646 339.494,-31.0641 348.729,-36.257 349.951,-29.3646"/>
</g>
</g>
</svg>
